<svg viewBox="0 0 80 80" fill="none" xmlns="http://www.w3.org/2000/svg">
<path d="M23.7139 75.2857C23.7139 75.2857 38.1424 72 44.1424 70.2857C50.1424 68.5714 51.1424 80.2857 58.7139 75.2857C66.2853 70.2857 74.1424 70.2857 74.1424 70.2857" stroke="url(#paint0_linear_34_333)" stroke-width="1.71429"/>
<path d="M21.3396 62.5199C25.3881 60.5553 27.3275 59.7583 29.8846 59.1659C27.8608 62.0408 27.8608 63.4782 23.8131 66.5927C15.9428 70.905 14.2648 74.112 11.4454 78.5714C11.619 60.7329 9.53604 49.9886 15.2553 34.7294C8.62534 47.4304 11.13 55.9454 9.06363 72.9235C1.6779 37.2669 4.26453 20.5698 39.9996 1.42856C33.47 23.8881 34.1727 33.0175 26.9613 38.323C30.1468 36.5384 31.9886 35.6783 35.5063 34.7294C32.8429 52.1118 29.2241 57.0201 21.3396 62.5199Z" fill="#6366F1" stroke="#6366F1" stroke-width="0.571429"/>
<defs>
<linearGradient id="paint0_linear_34_333" x1="16.7139" y1="76.5714" x2="82.1424" y2="76.5714" gradientUnits="userSpaceOnUse">
<stop stop-color="#6366F1" stop-opacity="0.25"/>
<stop offset="1" stop-color="#6366F1"/>
</linearGradient>
</defs>
</svg>
